<svg xmlns="http://www.w3.org/2000/svg" viewBox="0 0 240 240" role="img" aria-label="Cinema combo 3">
  <defs>
    <linearGradient id="bg" x1="18" x2="222" y1="24" y2="224" gradientUnits="userSpaceOnUse">
      <stop stop-color="#2c1c08"/>
      <stop offset="1" stop-color="#101010"/>
    </linearGradient>
    <linearGradient id="tray" x1="34" x2="205" y1="144" y2="210" gradientUnits="userSpaceOnUse">
      <stop stop-color="#3a3a3a"/>
      <stop offset="1" stop-color="#181818"/>
    </linearGradient>
  </defs>
  <rect width="240" height="240" rx="28" fill="url(#bg)"/>
  <ellipse cx="120" cy="196" rx="90" ry="20" fill="url(#tray)"/>
  <circle cx="55" cy="73" r="16" fill="#ffd95a"/>
  <circle cx="78" cy="60" r="18" fill="#ffe27a"/>
  <circle cx="103" cy="72" r="17" fill="#ffd15a"/>
  <circle cx="39" cy="94" r="17" fill="#ffe48a"/>
  <circle cx="72" cy="97" r="21" fill="#ffd95a"/>
  <circle cx="104" cy="98" r="19" fill="#ffe27a"/>
  <path d="M32 91h91l-12 108H45L32 91z" fill="#f6f6f6"/>
  <path d="M51 99h17l-4 100H47l4-100zM84 99h17l-4 100H80l4-100z" fill="#e50914"/>
  <path d="M28 89h99v18H28z" fill="#fff"/>
  <path d="M142 69h50l-8 130h-34L142 69z" fill="#e50914"/>
  <path d="M136 57h62v17h-62z" fill="#f2f2f2"/>
  <path d="M170 36l-7 44" stroke="#f2f2f2" stroke-width="7" stroke-linecap="round"/>
  <path d="M137 148c23-19 56-16 74 4-9 26-27 43-50 43-17 0-31-9-42-24 5-8 11-16 18-23z" fill="#f4a23a"/>
  <path d="M135 149c25 14 52 15 77 3" stroke="#ffd47b" stroke-width="8" stroke-linecap="round"/>
  <text x="77" y="155" fill="#111" font-family="Arial, sans-serif" font-size="30" font-weight="800" text-anchor="middle">3</text>
</svg>
